<?xml version="1.0" encoding="UTF-8" standalone="no"?>
<svg
   xmlns:osb="http://www.openswatchbook.org/uri/2009/osb"
   xmlns:dc="http://purl.org/dc/elements/1.1/"
   xmlns:cc="http://creativecommons.org/ns#"
   xmlns:rdf="http://www.w3.org/1999/02/22-rdf-syntax-ns#"
   xmlns:svg="http://www.w3.org/2000/svg"
   xmlns="http://www.w3.org/2000/svg"
   xmlns:sodipodi="http://sodipodi.sourceforge.net/DTD/sodipodi-0.dtd"
   xmlns:inkscape="http://www.inkscape.org/namespaces/inkscape"
   version="1.1"
   id="svg11"
   width="174.88959mm"
   height="174.88959mm"
   viewBox="0 0 660.99995 661.00002"
   sodipodi:docname="SLS_without_text_circle_path_fill.svg"
   inkscape:version="1.0rc1 (09960d6, 2020-04-09)">
  <metadata
     id="metadata17">
    <rdf:RDF>
      <cc:Work
         rdf:about="">
        <dc:format>image/svg+xml</dc:format>
        <dc:type
           rdf:resource="http://purl.org/dc/dcmitype/StillImage" />
        <dc:title></dc:title>
      </cc:Work>
    </rdf:RDF>
  </metadata>
  <defs
     id="defs15">
    <linearGradient
       osb:paint="solid"
       id="linearGradient922">
      <stop
         id="stop920"
         offset="0"
         style="stop-color:#36786e;stop-opacity:1;" />
    </linearGradient>
    <rect
       x="12.5"
       y="9.75"
       width="77.5"
       height="92"
       id="rect26" />
    <rect
       id="rect26-8"
       height="92"
       width="77.5"
       y="9.75"
       x="12.5" />
    <rect
       id="rect39"
       height="92"
       width="77.5"
       y="9.75"
       x="12.5" />
    <rect
       id="rect26-1"
       height="92"
       width="77.5"
       y="9.75"
       x="12.5" />
    <rect
       id="rect39-7"
       height="92"
       width="77.5"
       y="9.75"
       x="12.5" />
  </defs>
  <sodipodi:namedview
     inkscape:document-rotation="0"
     pagecolor="#ffffff"
     bordercolor="#666666"
     borderopacity="1"
     objecttolerance="10"
     gridtolerance="10"
     guidetolerance="10"
     inkscape:pageopacity="0"
     inkscape:pageshadow="2"
     inkscape:window-width="1280"
     inkscape:window-height="707"
     id="namedview13"
     showgrid="false"
     inkscape:object-paths="true"
     inkscape:zoom="0.66245342"
     inkscape:cx="261.82297"
     inkscape:cy="314.51415"
     inkscape:window-x="0"
     inkscape:window-y="23"
     inkscape:window-maximized="1"
     inkscape:current-layer="layer3"
     units="mm"
     fit-margin-top="0"
     fit-margin-left="0"
     fit-margin-right="0"
     fit-margin-bottom="0"
     inkscape:showpageshadow="true"
     borderlayer="false"
     showborder="true"
     lock-margins="true" />
  <g
     inkscape:groupmode="layer"
     id="layer3"
     inkscape:label="Image 1"
     transform="translate(242.2953,329.04526)">
    <g
       style="stroke-width:0.36110288;stroke-miterlimit:4;stroke-dasharray:none;fill:#36786e;fill-opacity:1"
       aria-label="S"
       transform="matrix(10.287552,0,0,10.64881,-321.10858,-422.50586)"
       id="text24">
      <path
         inkscape:connector-curvature="0"
         d="m 30.839844,19.153369 v 9.160156 h -0.722657 q -0.351562,-2.636719 -1.269531,-4.199219 -0.898437,-1.5625 -2.578125,-2.480468 -1.679687,-0.917969 -3.476562,-0.917969 -2.03125,0 -3.359375,1.25 -1.328125,1.230469 -1.328125,2.8125 0,1.210937 0.839843,2.207031 1.210938,1.464844 5.761719,3.90625 3.710938,1.992188 5.058594,3.066406 1.367187,1.054688 2.089844,2.5 0.742187,1.445313 0.742187,3.027344 0,3.007813 -2.34375,5.195313 -2.324219,2.167968 -5.996094,2.167968 -1.152343,0 -2.167968,-0.175781 -0.605469,-0.09766 -2.519532,-0.703125 -1.894531,-0.625 -2.402343,-0.625 -0.488282,0 -0.78125,0.292969 -0.273438,0.292969 -0.410156,1.210937 H 15.253906 V 37.76665 h 0.722657 q 0.507812,2.851563 1.367187,4.277344 0.859375,1.40625 2.617187,2.34375 1.777344,0.9375 3.886719,0.9375 2.441406,0 3.847656,-1.289063 1.425782,-1.289062 1.425782,-3.046875 0,-0.976562 -0.546875,-1.972656 -0.527344,-0.996094 -1.660157,-1.855469 -0.761718,-0.585937 -4.160156,-2.480468 -3.398437,-1.914063 -4.84375,-3.046875 -1.425781,-1.132813 -2.167968,-2.5 Q 15,27.76665 15,26.126025 q 0,-2.851562 2.1875,-4.902344 2.1875,-2.070312 5.566406,-2.070312 2.109375,0 4.472656,1.035156 1.09375,0.488281 1.542969,0.488281 0.507813,0 0.820313,-0.292968 0.332031,-0.3125 0.527343,-1.230469 z"
         style="fill:#36786e;fill-opacity:1;stroke:#36786e;stroke-width:0.36110288;stroke-miterlimit:4;stroke-dasharray:none"
         id="path869" />
    </g>
    <g
       style="fill:#36786e;fill-opacity:1"
       aria-label="L"
       transform="matrix(12.237263,0,0,12.523804,-156.0209,-323.89093)"
       id="text24-1">
      <path
         inkscape:connector-curvature="0"
         d="m 35.429687,38.918994 0.644532,0.136719 -2.265625,7.1875 H 13.300781 v -0.722657 h 0.996094 q 1.679688,0 2.402344,-1.09375 0.410156,-0.625 0.410156,-2.890625 V 24.446338 q 0,-2.480469 -0.546875,-3.105469 -0.761719,-0.859375 -2.265625,-0.859375 h -0.996094 v -0.722656 h 11.992188 v 0.722656 q -2.109375,-0.01953 -2.96875,0.390625 -0.839844,0.410156 -1.152344,1.035156 -0.3125,0.625 -0.3125,2.988281 v 16.640625 q 0,1.621094 0.3125,2.226563 0.234375,0.410156 0.722656,0.605469 0.488281,0.195312 3.046875,0.195312 H 26.875 q 3.046875,0 4.277344,-0.449219 1.230468,-0.449218 2.246093,-1.582031 1.015625,-1.152344 2.03125,-3.613281 z"
         style="fill:#36786e;fill-opacity:1;stroke:#36786e;stroke-width:0.30530031;stroke-miterlimit:4;stroke-dasharray:none"
         id="path875" />
    </g>
    <g
       style="stroke-width:0.36110288;stroke-miterlimit:4;stroke-dasharray:none;fill:#36786e;fill-opacity:1"
       aria-label="S"
       transform="matrix(10.287552,0,0,10.64881,-11.10858,-422.50586)"
       id="text24-4">
      <path
         inkscape:connector-curvature="0"
         d="m 30.839844,19.153369 v 9.160156 h -0.722657 q -0.351562,-2.636719 -1.269531,-4.199219 -0.898437,-1.5625 -2.578125,-2.480468 -1.679687,-0.917969 -3.476562,-0.917969 -2.03125,0 -3.359375,1.25 -1.328125,1.230469 -1.328125,2.8125 0,1.210937 0.839843,2.207031 1.210938,1.464844 5.761719,3.90625 3.710938,1.992188 5.058594,3.066406 1.367187,1.054688 2.089844,2.5 0.742187,1.445313 0.742187,3.027344 0,3.007813 -2.34375,5.195313 -2.324219,2.167968 -5.996094,2.167968 -1.152343,0 -2.167968,-0.175781 -0.605469,-0.09766 -2.519532,-0.703125 -1.894531,-0.625 -2.402343,-0.625 -0.488282,0 -0.78125,0.292969 -0.273438,0.292969 -0.410156,1.210937 H 15.253906 V 37.76665 h 0.722657 q 0.507812,2.851563 1.367187,4.277344 0.859375,1.40625 2.617187,2.34375 1.777344,0.9375 3.886719,0.9375 2.441406,0 3.847656,-1.289063 1.425782,-1.289062 1.425782,-3.046875 0,-0.976562 -0.546875,-1.972656 -0.527344,-0.996094 -1.660157,-1.855469 -0.761718,-0.585937 -4.160156,-2.480468 -3.398437,-1.914063 -4.84375,-3.046875 -1.425781,-1.132813 -2.167968,-2.5 Q 15,27.76665 15,26.126025 q 0,-2.851562 2.1875,-4.902344 2.1875,-2.070312 5.566406,-2.070312 2.109375,0 4.472656,1.035156 1.09375,0.488281 1.542969,0.488281 0.507813,0 0.820313,-0.292968 0.332031,-0.3125 0.527343,-1.230469 z"
         style="stroke:#36786e;fill:#36786e;stroke-width:0.36110288;stroke-miterlimit:4;stroke-dasharray:none;fill-opacity:1"
         id="path872" />
    </g>
    <circle
       r="320.88745"
       cy="1.4547424"
       cx="88.204697"
       id="path919"
       style="fill:none;stroke:#36786e;stroke-width:3.77952756;stroke-miterlimit:4;stroke-dasharray:none" />
    <circle
       style="fill:none;stroke:#36786e;stroke-width:3.77952756;stroke-miterlimit:4;stroke-dasharray:none;fill-opacity:1"
       id="path919-3"
       cx="88.204697"
       cy="1.4547424"
       r="330" />
  </g>
</svg>
